<?xml version="1.0" standalone="no"?>
<!DOCTYPE svg PUBLIC "-//W3C//DTD SVG 20010904//EN"
 "http://www.w3.org/TR/2001/REC-SVG-20010904/DTD/svg10.dtd">
<svg version="1.0" xmlns="http://www.w3.org/2000/svg"
 width="512.000000pt" height="512.000000pt" viewBox="0 0 512.000000 512.000000"
 preserveAspectRatio="xMidYMid meet">

<g transform="translate(0.000000,512.000000) scale(0.100000,-0.100000)"
fill="#000000" stroke="none">
<path d="M2068 4960 c-127 -15 -261 -66 -367 -139 l-57 -38 -35 18 c-95 48
-169 64 -304 64 -117 0 -138 -3 -213 -29 -100 -34 -215 -108 -277 -179 -87
-99 -586 -792 -620 -862 -48 -97 -66 -174 -66 -285 -2 -251 84 -404 328 -593
121 -94 143 -115 138 -132 -37 -115 -46 -175 -42 -275 7 -166 68 -317 173
-430 l42 -45 4 -108 c3 -105 4 -110 31 -133 35 -30 59 -30 93 -1 20 18 28 35
31 73 l5 50 82 -29 c144 -51 339 -48 478 8 l58 24 0 -235 0 -234 -310 0 -310
0 0 40 c0 80 -49 125 -109 101 -47 -20 -51 -42 -51 -306 l0 -245 -177 0 c-202
0 -229 -8 -295 -76 -66 -69 -68 -82 -68 -384 l0 -270 -80 0 c-111 0 -151 -22
-150 -83 1 -29 21 -54 54 -67 19 -7 629 -10 1902 -10 2046 0 1935 -3 1950 56
9 37 -6 76 -36 91 -17 9 -77 13 -187 13 l-162 0 -3 273 -3 272 -30 54 c-16 29
-43 64 -60 77 -73 55 -57 54 -689 54 -541 0 -585 -1 -604 -17 -33 -28 -33 -82
0 -113 21 -20 32 -20 596 -20 l574 0 29 -29 29 -29 0 -261 0 -261 -1490 0
-1490 0 0 249 c0 137 4 261 10 275 21 57 5 56 780 56 l711 0 24 25 c32 31 33
74 2 103 -20 19 -35 22 -110 22 l-87 0 0 496 0 496 55 60 c65 72 127 195 149
295 20 89 20 218 1 298 -16 71 -36 30 187 379 l153 239 91 23 c51 12 111 31
135 41 l44 19 113 -53 c107 -51 112 -55 112 -85 0 -98 83 -205 178 -227 28 -7
68 -10 89 -7 35 6 40 4 60 -28 74 -115 225 -138 345 -54 15 11 47 -2 202 -77
l185 -90 0 -125 1 -126 -184 -183 c-102 -100 -192 -199 -202 -219 -10 -22 -19
-69 -22 -117 -4 -71 -2 -83 18 -107 16 -21 30 -28 56 -28 52 0 74 28 74 95 0
31 6 70 14 88 7 18 73 90 147 160 l133 127 28 -34 c15 -19 45 -42 67 -53 l40
-20 -125 -124 -124 -124 0 -245 0 -246 55 -54 55 -54 -62 -63 -62 -63 -69 67
c-38 38 -75 82 -83 100 -9 20 -14 68 -14 128 0 82 -3 98 -20 115 -30 30 -83
27 -110 -7 -20 -26 -22 -37 -18 -148 5 -150 13 -166 145 -298 148 -147 189
-149 324 -20 85 82 116 124 119 163 6 67 0 82 -55 139 l-55 58 0 185 0 186 77
68 c55 50 78 65 81 54 11 -34 92 -99 143 -115 66 -19 92 -19 159 1 41 12 66
29 106 70 l53 54 71 -66 70 -66 0 -187 0 -187 -41 -39 c-53 -52 -69 -84 -69
-141 0 -46 2 -49 102 -151 159 -161 194 -161 354 1 139 141 134 122 134 516 0
268 -3 324 -17 366 -14 42 -42 74 -205 233 l-188 184 0 180 c0 169 2 184 25
243 72 181 25 404 -117 546 -56 56 -83 71 -404 229 l-344 169 0 40 c0 120
-100 213 -232 215 -67 1 -68 1 -97 42 -66 91 -189 118 -296 64 l-57 -29 -106
51 -105 52 -22 70 c-102 328 -393 555 -740 578 -44 2 -110 1 -147 -3z m266
-170 c238 -61 425 -248 486 -486 11 -42 26 -84 32 -92 7 -9 68 -42 136 -75 92
-44 122 -63 117 -75 -3 -8 -71 -155 -151 -327 l-146 -313 -116 55 c-179 85
-160 81 -239 45 -93 -43 -181 -62 -288 -62 -114 0 -197 20 -305 72 -120 58
-240 178 -298 298 -52 108 -72 191 -72 305 0 114 20 197 72 305 58 120 178
240 298 298 47 23 112 48 145 56 89 21 237 20 329 -4z m-914 -84 c30 -8 68
-19 83 -25 l29 -11 -29 -38 c-16 -20 -37 -49 -46 -64 -15 -25 -20 -26 -45 -16
-15 6 -63 11 -107 12 -70 1 -88 -3 -147 -31 -36 -17 -83 -48 -105 -70 -57 -57
-143 -183 -143 -210 0 -34 43 -73 79 -73 31 0 46 15 133 128 56 73 107 102
177 102 77 0 81 -3 65 -57 -21 -70 -32 -210 -22 -303 10 -102 29 -170 74 -270
19 -41 32 -80 30 -87 -3 -6 -70 -115 -150 -240 l-146 -229 -60 -12 c-34 -7
-88 -25 -121 -39 l-59 -26 -136 104 c-141 107 -175 147 -188 221 -13 71 9 114
150 308 145 200 154 221 109 265 -54 55 -81 34 -241 -185 -156 -214 -181 -272
-171 -387 13 -135 69 -211 259 -352 l87 -64 -51 -58 -51 -57 -117 88 c-64 49
-135 109 -157 135 -133 156 -161 384 -69 569 42 82 559 785 623 846 123 116
309 166 463 126z m1984 -607 c48 -37 40 -59 -159 -487 -101 -218 -193 -407
-204 -419 -19 -23 -61 -30 -96 -17 -23 9 -47 61 -39 86 3 12 89 199 190 417
116 248 194 404 210 419 31 28 64 28 98 1z m294 -142 c12 -12 22 -32 22 -47 0
-28 -370 -834 -393 -857 -7 -7 -27 -15 -44 -19 -27 -5 -37 -1 -63 24 -16 17
-30 40 -30 52 0 24 365 815 389 844 34 40 77 41 119 3z m454 -386 c298 -146
327 -162 370 -210 64 -71 91 -144 92 -246 0 -65 -5 -90 -26 -137 -35 -75 -107
-151 -177 -185 -50 -25 -67 -28 -156 -28 l-100 0 -317 154 c-175 85 -318 158
-318 163 0 8 242 534 281 611 11 20 21 37 23 37 2 0 150 -71 328 -159z m-2447
-126 c82 -54 172 -93 271 -117 49 -12 90 -23 92 -24 2 -1 -31 -57 -73 -123
-48 -75 -81 -118 -88 -114 -7 3 -80 48 -163 100 -83 51 -160 93 -171 93 -36 0
-55 -12 -68 -43 -25 -59 -8 -77 165 -184 88 -54 159 -101 160 -105 0 -4 -21
-39 -46 -79 -50 -76 -49 -68 -20 -194 21 -93 20 -156 -4 -249 -58 -229 -248
-386 -485 -403 -216 -15 -417 102 -514 299 -101 204 -67 434 89 601 91 98 193
149 343 172 20 3 45 15 55 25 10 11 82 121 161 245 l143 225 49 -44 c27 -24
74 -60 104 -81z m2845 -892 c0 -196 21 -183 -289 -183 -312 0 -291 -13 -291
178 0 104 3 133 13 129 149 -66 236 -83 339 -67 73 11 162 41 194 65 10 8 22
15 27 15 4 0 7 -62 7 -137z m295 -382 l120 -121 3 -298 c2 -163 0 -308 -3
-321 -4 -14 -41 -60 -83 -103 l-76 -78 -58 57 c-32 32 -58 62 -58 68 0 6 23
33 50 60 l50 49 0 245 0 246 -122 122 c-67 67 -120 124 -118 126 3 1 24 15 47
30 23 15 50 38 59 52 l16 25 27 -19 c14 -11 80 -74 146 -140z m-479 -3 c-13
-78 -77 -120 -142 -93 -42 17 -64 51 -64 97 l0 38 106 0 107 0 -7 -42z m-2816
-998 l0 -130 -310 0 -310 0 0 130 0 130 310 0 310 0 0 -130z"/>
<path d="M2055 4648 c-127 -24 -277 -132 -342 -249 -52 -92 -68 -153 -68 -264
0 -71 6 -116 19 -155 39 -115 110 -210 158 -210 11 0 33 14 50 30 36 36 33 59
-13 126 -44 65 -61 120 -62 204 -2 131 54 238 163 312 225 154 526 20 573
-255 28 -165 -85 -348 -248 -404 -28 -10 -83 -18 -125 -18 -85 -1 -117 -14
-126 -50 -16 -66 28 -105 119 -105 206 0 393 113 479 291 78 160 78 308 0 468
-103 212 -335 325 -577 279z"/>
<path d="M2098 4243 c-67 -42 -77 -139 -19 -197 28 -27 38 -31 87 -31 51 0 58
3 90 37 27 30 34 46 34 79 0 76 -53 129 -127 129 -21 0 -50 -8 -65 -17z"/>
<path d="M4164 3356 c-141 -44 -205 -204 -136 -337 87 -169 326 -169 414 0 69
131 3 295 -135 336 -60 18 -88 18 -143 1z m131 -171 c32 -31 32 -75 1 -111
-70 -83 -192 24 -125 110 28 36 89 37 124 1z"/>
<path d="M1115 2903 c-157 -57 -256 -196 -256 -362 0 -194 124 -343 318 -381
122 -24 255 20 341 115 59 64 87 120 102 203 29 161 -66 340 -218 410 -76 35
-211 42 -287 15z m198 -144 c49 -13 115 -73 138 -124 48 -104 7 -234 -91 -292
-156 -94 -349 14 -350 196 0 156 148 263 303 220z"/>
<path d="M1176 2605 c-19 -18 -26 -34 -26 -62 0 -49 21 -78 65 -93 94 -31 161
99 84 163 -32 26 -91 22 -123 -8z"/>
</g>
</svg>
