<?xml version="1.0" standalone="no"?>
<!DOCTYPE svg PUBLIC "-//W3C//DTD SVG 20010904//EN"
 "http://www.w3.org/TR/2001/REC-SVG-20010904/DTD/svg10.dtd">
<svg version="1.0" xmlns="http://www.w3.org/2000/svg"
 width="512.000000pt" height="512.000000pt" viewBox="0 0 512.000000 512.000000"
 preserveAspectRatio="xMidYMid meet">

<g transform="translate(0.000000,512.000000) scale(0.100000,-0.100000)"
fill="#000000" stroke="none">
<path d="M1575 5101 c-72 -33 -105 -86 -105 -166 0 -80 33 -133 105 -166 22
-10 61 -19 88 -19 l47 0 0 -40 c0 -23 7 -55 16 -72 15 -28 15 -34 -1 -69 -39
-85 0 -198 81 -236 l34 -17 0 -83 0 -83 -82 0 c-47 0 -94 -6 -108 -13 -14 -7
-45 -43 -70 -79 -25 -37 -49 -67 -54 -68 -4 0 -69 42 -145 94 -173 118 -191
127 -256 127 -95 0 -135 -31 -235 -181 -24 -36 -44 -67 -46 -68 -1 -2 -36 19
-78 47 l-75 51 14 35 c22 51 19 106 -8 146 -12 19 -58 58 -101 88 -93 64 -147
75 -206 43 -37 -20 -65 -56 -233 -305 -101 -149 -107 -160 -107 -209 0 -68 24
-103 107 -160 98 -66 110 -71 165 -66 35 4 59 14 87 36 l39 31 71 -50 c39 -27
71 -52 71 -54 0 -2 -34 -54 -75 -114 -42 -60 -82 -125 -90 -145 -22 -52 -18
-105 11 -163 25 -51 64 -82 332 -263 l22 -15 -70 -105 c-46 -69 -70 -115 -70
-133 0 -33 1008 -1870 1042 -1899 14 -12 37 -18 73 -18 l53 0 4 -193 c3 -171
6 -196 25 -232 47 -90 88 -105 283 -105 l150 0 15 -36 c24 -58 70 -108 127
-140 45 -25 64 -29 128 -29 64 0 83 4 128 29 57 32 103 82 127 140 l15 36 150
0 c195 0 236 15 283 105 19 36 22 61 25 233 l4 192 54 0 c38 0 59 5 72 18 10
10 64 101 120 203 l102 186 242 6 c133 4 341 7 462 7 288 0 346 16 437 117 83
92 104 257 47 368 -27 53 -95 123 -144 148 -20 10 -87 101 -207 279 l-179 264
86 155 c50 89 86 166 86 182 0 17 -24 63 -65 125 l-65 97 22 15 c263 177 307
212 332 263 29 58 33 111 11 163 -8 20 -48 85 -90 145 -41 60 -75 112 -75 114
0 2 32 27 71 54 l71 50 39 -31 c28 -22 52 -32 87 -36 55 -5 67 0 165 66 83 57
107 92 107 160 0 49 -6 60 -107 209 -168 249 -196 285 -233 305 -59 32 -113
21 -206 -43 -43 -30 -89 -69 -101 -88 -27 -40 -30 -95 -8 -146 l14 -35 -75
-51 c-42 -28 -77 -49 -78 -47 -2 1 -22 32 -46 68 -100 150 -140 181 -235 181
-65 0 -83 -9 -256 -127 -76 -52 -139 -94 -142 -94 -2 0 -24 29 -47 65 -24 36
-51 70 -61 75 -10 6 -61 10 -113 10 l-96 0 0 88 0 88 34 17 c81 38 120 151 81
236 -16 35 -16 41 -1 69 9 17 16 49 16 72 l0 40 48 0 c26 0 65 9 87 19 72 33
105 86 105 166 0 80 -33 133 -105 166 -38 18 -87 19 -985 19 -898 0 -947 -1
-985 -19z m1920 -166 l0 -30 -935 0 c-894 0 -935 1 -938 18 -10 50 -60 47 940
45 l933 -3 0 -30z m-240 -220 l0 -30 -695 0 c-662 0 -695 1 -698 18 -10 49
-42 47 700 45 l693 -3 0 -30z m0 -220 l0 -30 -695 0 c-662 0 -695 1 -698 18
-10 49 -42 47 700 45 l693 -3 0 -30z m-135 -265 l0 -80 -560 0 -560 0 0 80 0
80 560 0 560 0 0 -80z m-2605 -27 c31 -20 54 -40 53 -45 -6 -18 -254 -377
-260 -378 -15 0 -109 73 -105 83 3 11 251 376 255 377 1 0 27 -16 57 -37z
m4275 -147 c68 -101 126 -188 127 -193 4 -10 -90 -83 -105 -83 -9 1 -257 366
-257 380 0 9 92 78 105 79 3 0 61 -82 130 -183z m-3497 -94 l138 -94 -17 -27
c-24 -37 -435 -639 -501 -734 l-55 -77 -126 86 c-151 103 -172 121 -172 147 0
26 527 795 548 800 27 5 39 -1 185 -101z m3001 -291 c146 -214 266 -398 266
-408 0 -26 -21 -44 -172 -147 l-127 -87 -71 103 c-112 165 -116 168 -157 168
-49 0 -83 -32 -83 -77 0 -27 35 -85 175 -293 l176 -260 -52 -95 c-28 -52 -52
-95 -54 -95 -2 0 -182 267 -401 593 -422 627 -460 676 -573 735 -74 40 -195
72 -271 72 -67 0 -190 -30 -252 -61 -67 -33 -143 -95 -187 -153 -22 -28 -209
-348 -416 -709 -206 -361 -391 -679 -410 -706 -83 -115 -125 -251 -125 -406 0
-119 19 -204 66 -302 70 -146 179 -254 329 -328 158 -78 159 -78 879 -70 l629
7 -25 -43 c-14 -24 -46 -83 -72 -132 l-48 -87 -770 2 -770 3 -480 870 c-264
478 -482 874 -484 880 -2 5 200 312 450 680 l453 670 159 3 c88 2 470 0 849
-3 l690 -7 140 -210 c76 -115 152 -221 168 -234 36 -31 71 -31 102 1 41 40 33
70 -55 200 -44 66 -76 122 -72 127 4 4 66 47 137 97 93 64 139 90 161 90 31 1
41 -13 298 -388z m-3544 160 c0 -3 -16 -30 -35 -59 l-36 -52 -67 47 c-37 25
-71 50 -75 54 -5 4 8 32 28 63 l37 55 74 -51 c41 -28 74 -53 74 -57z m3804 53
c21 -31 34 -59 29 -63 -4 -4 -38 -28 -74 -54 l-67 -47 -38 55 c-20 30 -34 58
-30 63 6 5 138 100 142 102 1 0 18 -25 38 -56z m-1509 -168 c121 -29 221 -110
278 -225 30 -62 32 -72 32 -176 0 -104 -2 -114 -32 -176 -18 -36 -55 -88 -82
-115 -201 -201 -537 -143 -664 115 -30 62 -32 72 -32 176 0 104 2 114 32 176
89 179 277 270 468 225z m904 -1143 c89 -133 161 -246 159 -251 -1 -5 -129
-236 -283 -514 l-279 -506 -416 -4 c-228 -2 -417 -3 -419 -1 -2 1 19 26 47 54
135 135 202 300 202 495 0 169 -49 309 -151 436 -69 87 -138 141 -244 193
-153 76 -327 94 -485 51 -30 -9 -56 -13 -58 -11 -3 3 361 650 375 665 2 2 7
-7 10 -20 15 -58 88 -184 132 -229 282 -289 745 -216 920 145 16 33 32 75 36
94 4 19 9 39 12 43 5 8 51 -59 442 -640z m-1507 -206 c172 -62 299 -198 352
-376 10 -33 16 -91 16 -146 0 -55 -6 -113 -16 -146 -54 -180 -188 -321 -362
-381 -95 -32 -249 -32 -344 0 -174 60 -308 201 -362 381 -21 72 -21 220 0 292
62 208 231 362 444 403 61 12 206 -3 272 -27z m1888 -359 c63 -94 116 -174
118 -179 2 -5 -9 -11 -25 -15 -74 -17 -159 -91 -205 -176 -20 -37 -23 -58 -23
-143 0 -84 4 -107 22 -141 l22 -41 -255 -8 c-141 -4 -258 -5 -260 -2 -6 6 476
877 485 877 3 -1 58 -78 121 -172z m265 -347 c79 -35 113 -102 102 -198 -5
-51 -29 -88 -77 -120 -109 -74 -263 -7 -277 120 -11 96 23 163 102 198 51 24
99 24 150 0z m-1475 -1105 c0 -158 -2 -185 -16 -190 -20 -8 -1088 -8 -1108 0
-13 5 -16 22 -16 80 l0 73 334 3 c312 3 335 4 355 22 27 25 28 79 1 106 -19
19 -33 20 -355 20 l-335 0 0 35 0 35 570 0 570 0 0 -184z m-476 -360 c-7 -18
-65 -46 -94 -46 -29 0 -87 28 -94 46 -4 11 12 14 94 14 82 0 98 -3 94 -14z"/>
<path d="M2869 3577 c-124 -47 -188 -135 -188 -262 0 -109 47 -188 141 -241
45 -25 64 -29 128 -29 64 0 83 4 128 29 94 53 141 132 141 241 0 108 -47 189
-139 239 -62 34 -155 44 -211 23z m135 -152 c61 -29 85 -115 49 -176 -18 -31
-67 -59 -103 -59 -64 0 -120 58 -120 125 0 93 90 150 174 110z"/>
<path d="M2170 2166 c-85 -24 -165 -89 -208 -171 -24 -45 -27 -61 -27 -150 0
-89 3 -105 27 -150 71 -133 218 -205 361 -176 102 21 186 84 235 176 24 45 27
61 27 150 0 89 -3 105 -27 150 -76 143 -236 213 -388 171z m165 -155 c79 -35
113 -102 102 -198 -5 -51 -29 -88 -77 -120 -109 -74 -263 -7 -277 120 -11 96
23 163 102 198 51 24 99 24 150 0z"/>
<path d="M4465 1555 c-52 -51 -16 -145 55 -145 44 0 80 39 80 85 0 46 -36 85
-80 85 -19 0 -40 -9 -55 -25z"/>
</g>
</svg>
