<?xml version="1.0" standalone="no"?>
<!DOCTYPE svg PUBLIC "-//W3C//DTD SVG 20010904//EN"
 "http://www.w3.org/TR/2001/REC-SVG-20010904/DTD/svg10.dtd">
<svg version="1.0" xmlns="http://www.w3.org/2000/svg"
 width="512.000000pt" height="512.000000pt" viewBox="0 0 512.000000 512.000000"
 preserveAspectRatio="xMidYMid meet">

<g transform="translate(0.000000,512.000000) scale(0.100000,-0.100000)"
fill="#000000" stroke="none">
<path d="M305 4911 c-154 -71 -150 -280 7 -346 31 -12 87 -15 317 -15 l281 0
2 -1527 3 -1528 26 -81 c121 -385 509 -605 894 -508 204 52 389 205 481 399
72 150 68 105 72 968 l3 779 38 -49 c105 -132 284 -227 474 -253 233 -32 511
77 650 255 l37 48 0 -894 0 -894 -47 -25 c-57 -30 -109 -96 -124 -156 l-11
-44 -125 0 c-118 0 -125 -1 -148 -25 l-25 -24 0 -379 0 -379 23 -21 c23 -22
24 -22 526 -22 l502 0 24 25 25 24 0 376 0 376 -25 24 c-23 24 -30 25 -148 25
l-124 0 -13 45 c-18 65 -62 121 -120 153 l-49 27 -3 1175 -3 1175 -23 70 c-45
134 -100 223 -192 315 -47 47 -114 102 -150 123 -63 36 -186 79 -262 92 l-38
6 0 164 0 165 855 0 c750 0 860 2 893 15 160 67 160 283 0 350 -33 13 -275 15
-2250 15 -2130 0 -2214 -1 -2253 -19z m4469 -137 c20 -20 20 -48 0 -68 -14
-14 -229 -16 -2214 -16 -1985 0 -2200 2 -2214 16 -9 8 -16 24 -16 34 0 10 7
26 16 34 14 14 229 16 2214 16 1985 0 2200 -2 2214 -16z m-1854 -389 l0 -164
-37 -6 c-73 -12 -202 -57 -264 -93 -131 -76 -264 -230 -318 -368 -50 -128 -51
-151 -51 -947 l0 -744 -82 81 c-95 93 -178 145 -293 183 -72 24 -95 27 -225
27 -137 1 -150 -1 -233 -31 -121 -43 -188 -85 -284 -179 l-83 -81 0 1244 0
1243 935 0 935 0 0 -165z m208 -320 c404 -95 590 -575 356 -918 -114 -167
-292 -260 -494 -260 -166 0 -305 58 -425 178 -327 326 -167 890 284 1000 75
18 202 18 279 0z m-1339 -1860 c254 -60 441 -283 458 -545 17 -273 -149 -516
-412 -606 -67 -23 -97 -27 -185 -27 -91 -1 -116 3 -190 29 -107 37 -184 88
-256 167 -227 252 -196 645 68 863 61 51 159 100 236 119 77 18 203 18 281 0z
m1939 -1100 c16 -14 32 -34 35 -45 5 -19 0 -20 -104 -20 -73 0 -109 4 -109 11
0 6 15 26 34 45 44 44 99 47 144 9z m342 -490 l0 -285 -410 0 -410 0 0 285 0
285 410 0 410 0 0 -285z"/>
<path d="M2879 3846 c-158 -61 -253 -180 -266 -334 -20 -242 197 -444 434
-402 131 22 222 90 280 208 36 71 38 82 38 166 0 77 -4 100 -27 149 -38 81
-114 158 -191 193 -74 33 -207 43 -268 20z m218 -151 c194 -97 166 -380 -44
-441 -44 -13 -63 -13 -108 -4 -221 46 -264 344 -63 444 70 35 145 35 215 1z"/>
<path d="M1543 1986 c-196 -64 -309 -262 -259 -456 31 -118 99 -199 216 -254
56 -26 76 -30 150 -30 74 0 94 4 150 30 114 54 182 132 215 248 50 171 -43
367 -208 442 -74 33 -195 43 -264 20z m203 -145 c119 -54 175 -196 123 -311
-52 -116 -165 -170 -284 -136 -106 32 -169 114 -170 226 0 74 18 118 68 170
66 68 177 90 263 51z"/>
<path d="M3856 769 c-26 -20 -26 -22 -26 -148 0 -120 1 -129 23 -149 32 -30
71 -28 96 4 19 24 21 40 21 146 0 113 -1 120 -25 143 -30 30 -54 31 -89 4z"/>
</g>
</svg>
