<?xml version="1.0" standalone="no"?>
<!DOCTYPE svg PUBLIC "-//W3C//DTD SVG 20010904//EN"
 "http://www.w3.org/TR/2001/REC-SVG-20010904/DTD/svg10.dtd">
<svg version="1.0" xmlns="http://www.w3.org/2000/svg"
 width="512.000000pt" height="512.000000pt" viewBox="0 0 512.000000 512.000000"
 preserveAspectRatio="xMidYMid meet">

<g transform="translate(0.000000,512.000000) scale(0.100000,-0.100000)"
fill="#000000" stroke="none">
<path d="M2315 5109 c-596 -61 -1141 -318 -1562 -737 -785 -782 -977 -1985
-474 -2973 71 -139 182 -313 205 -322 41 -16 87 -7 117 22 46 46 40 78 -37
201 -172 274 -289 591 -340 920 -25 161 -25 519 0 680 140 900 750 1619 1616
1907 236 78 432 107 720 107 253 0 367 -13 585 -69 583 -149 1102 -532 1423
-1048 162 -260 280 -584 328 -902 25 -165 26 -504 1 -665 -121 -781 -590
-1432 -1287 -1781 -219 -110 -459 -185 -720 -226 -174 -27 -520 -24 -695 5
-330 56 -626 167 -895 336 -123 77 -155 83 -201 37 -29 -30 -38 -76 -22 -117
9 -23 183 -134 322 -205 824 -419 1817 -361 2580 152 157 105 261 190 390 320
725 724 945 1794 569 2758 -120 307 -321 613 -566 858 -395 396 -891 645
-1457 729 -122 18 -477 26 -600 13z"/>
<path d="M2709 4645 c-15 -8 -31 -22 -35 -32 -5 -10 -11 -107 -14 -216 l-5
-198 -43 65 c-62 94 -159 179 -267 232 -106 52 -197 74 -316 74 -134 0 -314
-54 -366 -112 -47 -50 -42 -69 56 -240 49 -86 94 -164 99 -175 8 -14 -5 -11
-63 18 -200 97 -434 93 -635 -12 -140 -72 -290 -236 -290 -315 0 -51 37 -82
209 -181 l155 -88 -78 -7 c-186 -17 -317 -78 -447 -207 -72 -72 -94 -102 -133
-181 -87 -177 -100 -362 -29 -396 10 -5 107 -11 216 -14 l198 -5 -65 -43 c-94
-62 -179 -159 -232 -267 -52 -106 -74 -197 -74 -316 0 -137 55 -314 114 -368
46 -43 77 -35 257 68 90 52 167 96 171 97 3 2 -7 -20 -22 -49 -50 -93 -71
-173 -77 -293 -7 -140 12 -231 72 -353 74 -147 238 -301 321 -301 51 0 82 37
181 209 l88 155 7 -78 c17 -186 78 -317 207 -447 72 -72 101 -93 181 -132 179
-87 362 -101 396 -30 5 10 11 107 14 216 l5 198 43 -65 c62 -95 160 -180 268
-232 107 -52 198 -74 315 -74 137 0 314 55 369 114 42 46 34 77 -69 257 -52
90 -96 167 -97 171 -2 3 20 -7 49 -22 93 -50 173 -71 293 -77 140 -7 231 12
353 72 147 74 301 238 301 321 0 51 -37 82 -209 181 l-155 88 76 7 c186 17
319 78 449 207 72 72 93 101 132 181 87 179 101 362 30 396 -10 5 -107 11
-216 14 l-198 5 65 43 c95 62 180 160 232 268 52 107 74 198 74 315 0 134 -54
314 -112 366 -50 47 -69 42 -240 -56 -86 -49 -165 -94 -176 -100 -18 -9 -17
-4 8 42 50 93 71 173 77 293 7 140 -12 231 -72 353 -74 147 -238 301 -321 301
-51 0 -82 -37 -181 -209 l-88 -155 -7 76 c-16 174 -79 316 -191 435 -107 113
-230 181 -374 209 -93 18 -150 17 -184 -1z m271 -238 c81 -38 186 -139 223
-217 55 -114 57 -136 57 -620 0 -491 -2 -508 -60 -589 -39 -53 -107 -97 -176
-112 -48 -11 -56 -10 -74 6 -20 18 -19 18 16 57 92 102 138 221 137 353 -1
113 -24 176 -142 380 l-101 175 0 305 0 305 28 -6 c15 -4 56 -20 92 -37z
m-807 -57 c91 -28 152 -65 216 -130 44 -45 100 -134 268 -427 117 -203 220
-387 229 -409 49 -114 -2 -279 -109 -348 -20 -14 -30 -15 -46 -7 -17 10 -19
15 -10 39 20 52 23 183 6 249 -45 173 -121 258 -351 388 -87 50 -171 101 -186
115 -30 27 -316 518 -307 527 28 27 205 29 290 3z m1645 -360 c107 -134 142
-317 89 -470 -30 -87 -441 -801 -490 -850 -21 -21 -59 -49 -85 -62 -95 -47
-271 -23 -280 38 -2 17 7 24 59 39 120 37 240 138 293 248 48 98 56 155 56
378 l0 208 111 193 c62 106 129 223 151 261 21 37 43 67 48 67 4 0 26 -23 48
-50z m-2218 -83 c83 -28 799 -440 849 -488 21 -20 49 -58 62 -85 48 -97 25
-273 -37 -282 -17 -2 -24 7 -39 59 -37 120 -138 240 -248 293 -98 48 -155 56
-379 56 l-207 0 -253 146 c-139 81 -257 151 -263 156 -24 23 147 135 241 157
76 18 204 12 274 -12z m447 -662 c103 -30 180 -115 204 -221 11 -48 10 -56 -6
-74 -18 -20 -18 -19 -57 16 -102 92 -221 138 -353 137 -113 -1 -176 -24 -380
-142 l-175 -101 -305 0 -305 0 6 28 c27 115 146 263 254 315 112 54 129 56
616 56 371 1 459 -2 501 -14z m2308 -22 c14 -35 17 -179 6 -236 -7 -31 -29
-89 -48 -129 -61 -122 -104 -155 -503 -385 -195 -113 -379 -217 -409 -231 -67
-31 -165 -34 -226 -8 -98 42 -167 115 -145 155 9 17 14 19 38 10 52 -20 183
-23 249 -6 175 45 255 119 397 365 54 94 105 177 113 183 18 15 506 298 514
299 4 0 10 -8 14 -17z m-2406 -339 c92 -38 162 -114 142 -152 -10 -18 -14 -18
-63 -6 -158 42 -350 -14 -468 -135 -37 -39 -87 -113 -153 -228 -54 -94 -106
-178 -115 -186 -30 -25 -513 -299 -519 -294 -11 12 -23 86 -23 153 0 44 8 97
20 137 50 162 120 234 361 371 96 55 270 155 387 222 118 68 233 128 255 133
51 12 127 5 176 -15z m745 -58 c105 -51 161 -144 161 -266 0 -85 -21 -142 -74
-203 -82 -92 -237 -121 -353 -64 -160 79 -215 278 -118 430 80 126 246 170
384 103z m-662 -313 c18 -10 34 -28 36 -39 2 -17 -7 -24 -59 -39 -120 -37
-240 -138 -293 -248 -48 -98 -56 -155 -56 -378 l0 -207 -146 -254 c-80 -139
-150 -257 -155 -263 -13 -13 -79 63 -114 131 -58 114 -72 259 -35 375 18 58
410 755 471 838 29 40 86 79 141 97 58 19 167 13 210 -13z m141 -271 c16 -17
15 -20 -9 -43 -89 -83 -148 -228 -147 -359 0 -118 23 -178 142 -385 l101 -175
0 -305 c0 -168 -2 -305 -3 -305 -2 0 -30 9 -62 20 -159 55 -276 185 -320 355
-22 86 -22 927 0 1002 28 94 93 162 190 195 64 22 88 22 108 0z m2277 15 c0
-2 -9 -30 -20 -62 -55 -159 -185 -276 -355 -320 -86 -22 -927 -22 -1002 0
-103 30 -180 115 -204 221 -11 48 -10 56 6 74 18 20 18 19 57 -16 103 -93 214
-136 348 -136 119 0 184 24 385 141 l170 100 308 0 c169 1 307 -1 307 -2z
m-2061 -167 c17 -8 17 -13 5 -62 -42 -158 14 -350 135 -468 39 -37 113 -87
228 -153 94 -54 178 -106 186 -115 25 -30 299 -513 294 -519 -12 -11 -86 -23
-153 -23 -129 0 -260 55 -352 149 -46 47 -98 130 -269 428 -117 203 -220 387
-229 409 -47 108 3 282 100 344 37 23 33 22 55 10z m297 -82 c36 -119 137
-239 247 -292 98 -48 155 -56 378 -56 l207 0 254 -146 c139 -80 258 -150 263
-155 13 -13 -63 -79 -131 -114 -118 -60 -267 -72 -384 -32 -86 29 -800 441
-852 490 -88 85 -115 241 -58 335 31 51 54 42 76 -30z"/>
<path d="M2511 2646 c-87 -48 -50 -186 49 -186 51 0 100 49 100 99 0 75 -83
124 -149 87z"/>
<path d="M771 906 c-87 -48 -50 -186 49 -186 51 0 100 49 100 99 0 75 -83 124
-149 87z"/>
</g>
</svg>
